<svg xmlns="http://www.w3.org/2000/svg" width="22.054" height="23.917" viewBox="0 0 22.054 23.917"><g transform="translate(-20.512 0.25)"><g transform="translate(20.799 0)"><path d="M34.96,11.368a9.575,9.575,0,0,0,2.231-5.7,5.665,5.665,0,1,0-11.331,0,9.575,9.575,0,0,0,2.231,5.7,10.17,10.17,0,0,0-7.076,12.05h21.02A10.2,10.2,0,0,0,34.96,11.368ZM31.526.756a4.9,4.9,0,0,1,4.467,2.886,3.393,3.393,0,0,1-3.8-.166,3.981,3.981,0,0,0-4.278.18l-1.143.8A4.915,4.915,0,0,1,31.526.756ZM26.616,5.665c0-.06,0-.12.009-.18L28.35,4.273a3.223,3.223,0,0,1,3.462-.148,4.144,4.144,0,0,0,4.444.244,4.958,4.958,0,0,1,.18,1.291c0,2.683-2.2,6.8-4.909,6.8S26.616,8.348,26.616,5.665Zm14.793,17H21.647a9.422,9.422,0,0,1,3.554-9,10.722,10.722,0,0,0,.94,3.047A3.023,3.023,0,0,0,24.9,20.26l.627,1.779,1.424-.5-.249-.715-.715.249L25.611,20a2.267,2.267,0,1,1,4.278-1.5l.373,1.069-.715.249.249.715,1.424-.5-.627-1.784a3.019,3.019,0,0,0-3.775-1.872,9.9,9.9,0,0,1-.927-3.213,9.544,9.544,0,0,1,2.8-1.189,3.87,3.87,0,0,0,5.661,0,9.386,9.386,0,0,1,3.213,1.471,9.81,9.81,0,0,1-1.106,2.844,1.464,1.464,0,0,0-.406-.065,1.512,1.512,0,1,0,1.512,1.512,1.5,1.5,0,0,0-.452-1.074,10.679,10.679,0,0,0,1.106-2.711A9.482,9.482,0,0,1,41.409,22.662Zm-4.6-4.909A.756.756,0,1,1,36.057,17,.759.759,0,0,1,36.813,17.752Z" transform="translate(-20.799 0)" fill="#a1a1a1" stroke="#a1a1a1" stroke-width="0.5"/></g></g></svg>