<svg xmlns="http://www.w3.org/2000/svg" width="25.356" height="33.808" viewBox="0 0 25.356 33.808"><path d="M88.652,12.678H86.539V9.861a9.861,9.861,0,1,0-19.721,0v2.817H64.7a.7.7,0,0,0-.7.7V30.991a2.82,2.82,0,0,0,2.817,2.817H86.539a2.82,2.82,0,0,0,2.817-2.817V13.382A.7.7,0,0,0,88.652,12.678ZM78.787,27.391a.7.7,0,0,1-.7.782H75.269a.7.7,0,0,1-.7-.782l.444-4a2.787,2.787,0,0,1-1.153-2.266,2.817,2.817,0,1,1,5.635,0A2.787,2.787,0,0,1,78.343,23.4Zm3.526-14.713H71.043V9.861a5.635,5.635,0,0,1,11.269,0Z" transform="translate(-64)" fill="#dfdfdf"/></svg>