<svg xmlns="http://www.w3.org/2000/svg" width="26.527" height="24.206" viewBox="0 0 26.527 24.206"><g transform="translate(0 -22.397)"><g transform="translate(7.73 31.721)"><path d="M167.664,204.5l-2.838-2a.778.778,0,0,0-1.225.635v1.224H149.972a.777.777,0,1,0,0,1.554H163.6v1.224a.778.778,0,0,0,1.225.635l2.838-2A.779.779,0,0,0,167.664,204.5Z" transform="translate(-149.195 -202.358)" fill="#a1a1a1"/></g><g transform="translate(0 22.397)"><g transform="translate(0 0)"><path d="M22.3,39.49a.777.777,0,0,0-1.062.284,10.549,10.549,0,1,1,0-10.548.777.777,0,0,0,1.346-.778,12.1,12.1,0,1,0,0,12.1A.777.777,0,0,0,22.3,39.49Z" transform="translate(0 -22.397)" fill="#a1a1a1"/></g></g></g></svg>