<svg xmlns="http://www.w3.org/2000/svg" width="20.217" height="18.87" viewBox="0 0 20.217 18.87"><path d="M139.944,134.873l-9.435-6.74a.674.674,0,0,0-.783,0l-9.435,6.74a.674.674,0,0,0,.392,1.222H122.7V146.2a.674.674,0,0,0,.674.674h13.479a.674.674,0,0,0,.674-.674V136.095h2.022a.674.674,0,0,0,.392-1.222Zm-9.827-5.363,7.333,5.237H122.785ZM128.77,145.53v-4.044a1.348,1.348,0,0,1,2.7,0v4.044Zm4.044,0v-4.044a2.7,2.7,0,1,0-5.392,0v4.044h-3.37v-9.435h12.131v9.435Zm0,0" transform="translate(-120.009 -128.008)" fill="#a1a1a1"/></svg>