<svg xmlns="http://www.w3.org/2000/svg" width="19.645" height="19.644" viewBox="0 0 19.645 19.644"><g transform="translate(0 0)"><path d="M17.918,6.909H11.549V5.758h1.727a.576.576,0,0,0,.46-.921L10.283.233a.576.576,0,0,0-.921,0l-3.453,4.6a.576.576,0,0,0,.46.921H8.1V6.909H1.727A1.729,1.729,0,0,0,0,8.635V17.92a1.729,1.729,0,0,0,1.727,1.727H17.918a1.729,1.729,0,0,0,1.727-1.727V8.635A1.729,1.729,0,0,0,17.918,6.909Zm-10.4-2.3,2.3-3.069,2.3,3.069H10.973a.576.576,0,0,0-.576.576V9.211H9.247V5.182a.576.576,0,0,0-.576-.576H7.52ZM8.1,8.06V9.786a.576.576,0,0,0,.576.576h2.3a.576.576,0,0,0,.576-.576V8.06h6.065L10.2,14.585a.577.577,0,0,1-.757,0L2.03,8.06ZM1.151,17.743V8.819l5.1,4.489Zm.888.753,5.083-4.42,1.563,1.376a1.733,1.733,0,0,0,2.275,0l1.562-1.375,5.083,4.42Zm16.454-.753-5.1-4.434,5.1-4.489Z" transform="translate(0 -0.003)" fill="#a1a1a1"/></g></svg>