<svg xmlns="http://www.w3.org/2000/svg" width="23.063" height="20.282" viewBox="0 0 23.063 20.282"><path d="M20.585,30.872H2.477A2.48,2.48,0,0,0,0,33.349V45.241a2.48,2.48,0,0,0,2.477,2.477H8.311a.226.226,0,0,1,.181.092L10.621,50.7a1.116,1.116,0,0,0,.9.458h.005a1.116,1.116,0,0,0,.9-.449l2.177-2.9a.226.226,0,0,1,.18-.09h5.8a2.48,2.48,0,0,0,2.477-2.477V33.349a2.48,2.48,0,0,0-2.477-2.477Zm1.126,14.369a1.122,1.122,0,0,1-.043.307l-6.942-6.085,6.984-5.8ZM20.585,32.223a1.119,1.119,0,0,1,.565.153l-8.9,7.384a1.127,1.127,0,0,1-1.438,0l-8.9-7.386a1.119,1.119,0,0,1,.563-.152ZM1.394,45.548a1.122,1.122,0,0,1-.043-.307V33.664l6.986,5.8ZM13.524,47l-2,2.654L9.58,47.008a1.582,1.582,0,0,0-1.269-.641H2.51l6.881-6.032.56.465a2.479,2.479,0,0,0,3.164,0l.559-.464,6.879,6.03H14.784a1.585,1.585,0,0,0-1.26.629Z" transform="translate(0 -30.872)" fill="#a1a1a1"/></svg>