<svg xmlns="http://www.w3.org/2000/svg" width="61.739" height="74" viewBox="0 0 61.739 74"><path d="M104.855,35.647a17.247,17.247,0,0,0,12.6-5.222,17.247,17.247,0,0,0,5.221-12.6,17.248,17.248,0,0,0-5.222-12.6,17.819,17.819,0,0,0-25.2,0,17.246,17.246,0,0,0-5.222,12.6,17.247,17.247,0,0,0,5.222,12.6A17.252,17.252,0,0,0,104.855,35.647ZM95.32,8.288a13.482,13.482,0,0,1,19.071,0,12.886,12.886,0,0,1,3.951,9.535,12.885,12.885,0,0,1-3.951,9.536,13.481,13.481,0,0,1-19.071,0,12.883,12.883,0,0,1-3.952-9.536A12.884,12.884,0,0,1,95.32,8.288Zm0,0" transform="translate(-74.453 0)" fill="#dfdfdf"/><path d="M61.589,268.474a44.023,44.023,0,0,0-.6-4.676,36.839,36.839,0,0,0-1.15-4.7,23.224,23.224,0,0,0-1.933-4.385,16.528,16.528,0,0,0-2.914-3.8,12.849,12.849,0,0,0-4.186-2.63,14.468,14.468,0,0,0-5.344-.967,5.424,5.424,0,0,0-2.9,1.229c-.868.566-1.884,1.221-3.018,1.946a17.292,17.292,0,0,1-3.9,1.72,15.162,15.162,0,0,1-9.552,0,17.24,17.24,0,0,1-3.9-1.72c-1.123-.718-2.139-1.372-3.02-1.947a5.419,5.419,0,0,0-2.9-1.229,14.45,14.45,0,0,0-5.344.968,12.839,12.839,0,0,0-4.187,2.63,16.532,16.532,0,0,0-2.913,3.8A23.266,23.266,0,0,0,1.9,259.1a36.927,36.927,0,0,0-1.149,4.7,43.725,43.725,0,0,0-.6,4.678c-.1,1.413-.148,2.884-.148,4.37a12.288,12.288,0,0,0,3.649,9.3,13.136,13.136,0,0,0,9.4,3.43H48.685a13.138,13.138,0,0,0,9.4-3.43,12.283,12.283,0,0,0,3.65-9.3c0-1.491-.051-2.962-.15-4.371ZM55.1,279a8.845,8.845,0,0,1-6.414,2.235H13.054A8.845,8.845,0,0,1,6.639,279a8.024,8.024,0,0,1-2.3-6.155c0-1.387.046-2.756.137-4.07a39.436,39.436,0,0,1,.542-4.211,32.57,32.57,0,0,1,1.011-4.145A18.942,18.942,0,0,1,7.6,256.854a12.253,12.253,0,0,1,2.141-2.807,8.523,8.523,0,0,1,2.785-1.732,9.979,9.979,0,0,1,3.415-.659c.152.081.422.235.86.521.891.581,1.919,1.244,3.055,1.969a21.486,21.486,0,0,0,4.9,2.19,19.495,19.495,0,0,0,12.219,0,21.509,21.509,0,0,0,4.9-2.192c1.162-.743,2.161-1.387,3.053-1.968.438-.285.709-.44.86-.521a9.986,9.986,0,0,1,3.416.659,8.536,8.536,0,0,1,2.784,1.732,12.22,12.22,0,0,1,2.141,2.807,18.878,18.878,0,0,1,1.573,3.564,32.495,32.495,0,0,1,1.012,4.145,39.769,39.769,0,0,1,.542,4.212h0c.092,1.309.138,2.678.139,4.068A8.023,8.023,0,0,1,55.1,279Zm0,0" transform="translate(0 -211.571)" fill="#dfdfdf"/></svg>