<svg xmlns="http://www.w3.org/2000/svg" width="27.356" height="32.789" viewBox="0 0 27.356 32.789"><path d="M94.929,15.795a7.641,7.641,0,0,0,5.584-2.314A7.641,7.641,0,0,0,102.827,7.9a7.642,7.642,0,0,0-2.314-5.584,7.9,7.9,0,0,0-11.168,0A7.642,7.642,0,0,0,87.032,7.9a7.641,7.641,0,0,0,2.314,5.584A7.643,7.643,0,0,0,94.929,15.795Zm0,0" transform="translate(-81.458 0)" fill="#dfdfdf"/><path d="M27.29,256.691a19.508,19.508,0,0,0-.266-2.072,16.324,16.324,0,0,0-.51-2.083,10.289,10.289,0,0,0-.856-1.943,7.331,7.331,0,0,0-1.291-1.683,5.693,5.693,0,0,0-1.855-1.166,6.411,6.411,0,0,0-2.368-.428,2.4,2.4,0,0,0-1.284.544c-.385.251-.835.541-1.337.862a7.661,7.661,0,0,1-1.73.762,6.718,6.718,0,0,1-4.232,0,7.643,7.643,0,0,1-1.729-.762c-.5-.318-.948-.608-1.338-.863a2.4,2.4,0,0,0-1.283-.544,6.4,6.4,0,0,0-2.368.429,5.688,5.688,0,0,0-1.855,1.165A7.332,7.332,0,0,0,1.7,250.593a10.309,10.309,0,0,0-.856,1.943,16.361,16.361,0,0,0-.509,2.083,19.437,19.437,0,0,0-.266,2.073C.022,257.319,0,257.97,0,258.628a5.445,5.445,0,0,0,1.617,4.119,5.821,5.821,0,0,0,4.167,1.52H21.572a5.82,5.82,0,0,0,4.167-1.52,5.442,5.442,0,0,0,1.617-4.119c0-.661-.023-1.312-.066-1.937Zm0,0" transform="translate(0 -231.478)" fill="#dfdfdf"/></svg>